<?xml version="1.0" encoding="utf-8"?>
<!-- Generator: Adobe Illustrator 23.0.4, SVG Export Plug-In . SVG Version: 6.00 Build 0)  -->
<svg version="1.1" id="Layer_1" xmlns="http://www.w3.org/2000/svg" xmlns:xlink="http://www.w3.org/1999/xlink" x="0px" y="0px"
	 width="166.764px" height="50px" viewBox="0 0 166.764 50" style="enable-background:new 0 0 166.764 50;" xml:space="preserve">
<style type="text/css">
	.st0{fill:#FFFFFF;}
</style>
<g>
	<g>
		<g>
			<path class="st0" d="M38.381,0v28.466l-8.209,8.202v-7.301l2.636-2.636v-7.053l-4.311,6.67V50l-3.876-9.764l-4.401-4.401V5.911
				l5.032,13.888l8.345-8.345L38.381,0z M0,0v28.466l8.202,8.202v-7.301l-2.636-2.644v-7.053l4.304,6.67v23.652l3.876-9.764
				l4.401-4.401V5.911l-5.032,13.888l-8.337-8.345L0,0z"/>
			<path class="st0" d="M132.687,16.171l-1.848,3.267h0.849v7.218l1.006,1.773h10.763l1.006-1.773v-8.713l-1.006-1.773
				C143.458,16.171,132.687,16.171,132.687,16.171z M135.714,25.161v-5.723h4.702v5.723
				C140.416,25.161,135.714,25.161,135.714,25.161z M90.333,16.171l-1.848,3.267h0.849v8.991h11.77l1.006-1.773v-8.713l-1.006-1.773
				C101.104,16.171,90.333,16.171,90.333,16.171z M98.062,25.161H93.36v-5.723h4.702V25.161z M119.341,16.171l-1.848,3.267h4.476
				v9.291l4.041-2.058v-7.233h2.869l1.848-3.267C130.727,16.171,119.341,16.171,119.341,16.171z M85.128,24.072l1.848-3.267h-6.625
				v-1.367h5.881l1.848-3.267H76.318v12.258h8.75l1.848-3.267h-6.557v-1.089C80.359,24.072,85.128,24.072,85.128,24.072z
				 M75.131,19.438l-2.644-3.267H60.793v12.558l4.041-2.058v-7.233h4.101l0.398,0.428l-3.996,3.725l11.236,8.164l-6.009-7.421
				L75.131,19.438z M162.235,31.756l-6.009-7.421l4.567-4.897l-2.644-3.267h-11.687v12.558l4.041-2.058v-7.233h4.101l0.398,0.428
				l-3.996,3.725L162.235,31.756z M105.408,16.171l-1.848,3.267h0.849v9.291l4.041-2.058v-2.599h4.334v4.657l4.041-2.058v-8.728
				l-1.006-1.773C115.818,16.171,105.408,16.171,105.408,16.171z M112.784,20.97h-4.334v-1.532h4.334V20.97z M59.809,19.438
				l-2.644-3.267H46.477l-1.848,3.267h0.849v9.291l4.033-2.058v-3.064l2.944,1.322L59.809,19.438z M49.512,19.438h4.101l0.398,0.428
				l-4.499,3.064C49.512,22.931,49.512,19.438,49.512,19.438z"/>
		</g>
	</g>
	<g>
		<path class="st0" d="M162.205,18.124h-0.533v-2.133h-0.969v-0.466h2.464v0.466h-0.969v2.133H162.205z M165.172,16.99l1.097-1.465
			h0.496v2.599h-0.533v-1.765l-0.901,1.202h-0.33l-0.901-1.194v1.758h-0.533v-2.599h0.496L165.172,16.99z"/>
	</g>
</g>
</svg>
